<svg width="10" height="20" viewBox="0 0 10 20" fill="none" xmlns="http://www.w3.org/2000/svg">
<path d="M8.43999 19.3333C8.2408 19.3339 8.04399 19.29 7.86402 19.2046C7.68404 19.1192 7.52549 18.9946 7.39999 18.8399L0.959995 10.8399C0.763886 10.6013 0.656677 10.3021 0.656677 9.99325C0.656677 9.68442 0.763886 9.38516 0.959995 9.14659L7.62666 1.14659C7.85298 0.874298 8.17819 0.703065 8.53076 0.670559C8.88333 0.638053 9.23437 0.746935 9.50666 0.973253C9.77895 1.19957 9.95018 1.52479 9.98269 1.87736C10.0152 2.22992 9.90631 2.58096 9.67999 2.85325L3.71999 9.99992L9.47999 17.1466C9.64304 17.3423 9.74661 17.5806 9.77845 17.8334C9.81029 18.0861 9.76906 18.3426 9.65966 18.5727C9.55025 18.8027 9.37724 18.9966 9.16109 19.1314C8.94494 19.2662 8.69471 19.3362 8.43999 19.3333Z" fill="#181725"/>
</svg>
