<svg width="24" height="24" viewBox="0 0 24 24" fill="none" xmlns="http://www.w3.org/2000/svg">
<g clip-path="url(#clip0)">
<path d="M5.26601 9.765C5.73389 8.34945 6.63687 7.11781 7.84612 6.2458C9.05538 5.37378 10.5091 4.90594 12 4.909C13.69 4.909 15.218 5.509 16.418 6.491L19.91 3C17.782 1.145 15.055 0 12 0C7.27001 0 3.19801 2.698 1.24001 6.65L5.26601 9.765Z" fill="#EA4335"/>
<path d="M16.04 18.0131C14.95 18.7161 13.566 19.0911 12 19.0911C10.5151 19.0941 9.0668 18.63 7.86024 17.7644C6.65367 16.8988 5.74994 15.6757 5.277 14.2681L1.237 17.3351C2.22824 19.3414 3.76227 21.0295 5.66482 22.2076C7.56738 23.3858 9.76221 24.0068 12 24.0001C14.933 24.0001 17.735 22.9571 19.834 21.0001L16.041 18.0131H16.04Z" fill="#34A853"/>
<path d="M19.834 21.0001C22.029 18.9521 23.454 15.9041 23.454 12.0001C23.454 11.2901 23.345 10.5271 23.182 9.81812H12V14.4551H18.436C18.119 16.0141 17.266 17.2211 16.041 18.0131L19.834 21.0001Z" fill="#4A90E2"/>
<path d="M5.27699 14.2679C5.03235 13.5368 4.90806 12.7708 4.90899 11.9999C4.90899 11.2179 5.03399 10.4669 5.26599 9.7649L1.23999 6.6499C0.416372 8.31259 -0.00820201 10.1444 -5.61577e-06 11.9999C-5.61577e-06 13.9199 0.444994 15.7299 1.23699 17.3349L5.27699 14.2679Z" fill="#FBBC05"/>
</g>
<defs>
<clipPath id="clip0">
<rect width="24" height="24" fill="white"/>
</clipPath>
</defs>
</svg>
