<svg width="34" height="34" viewBox="0 0 34 34" fill="none" xmlns="http://www.w3.org/2000/svg">
<path d="M12 2H3.66667C2.74619 2 2 2.74619 2 3.66667V12C2 12.9205 2.74619 13.6667 3.66667 13.6667H12C12.9205 13.6667 13.6667 12.9205 13.6667 12V3.66667C13.6667 2.74619 12.9205 2 12 2Z" stroke="#FFB951" stroke-width="3" stroke-linecap="round" stroke-linejoin="round"/>
<path d="M12 20.3334H3.66667C2.74619 20.3334 2 21.0796 2 22V30.3334C2 31.2538 2.74619 32 3.66667 32H12C12.9205 32 13.6667 31.2538 13.6667 30.3334V22C13.6667 21.0796 12.9205 20.3334 12 20.3334Z" stroke="#FFB951" stroke-width="3" stroke-linecap="round" stroke-linejoin="round"/>
<path d="M30.3333 2H22C21.0795 2 20.3333 2.74619 20.3333 3.66667V12C20.3333 12.9205 21.0795 13.6667 22 13.6667H30.3333C31.2538 13.6667 32 12.9205 32 12V3.66667C32 2.74619 31.2538 2 30.3333 2Z" stroke="#FFB951" stroke-width="3" stroke-linecap="round" stroke-linejoin="round"/>
<path d="M30.3333 20.3334H22C21.0795 20.3334 20.3333 21.0796 20.3333 22V30.3334C20.3333 31.2538 21.0795 32 22 32H30.3333C31.2538 32 32 31.2538 32 30.3334V22C32 21.0796 31.2538 20.3334 30.3333 20.3334Z" stroke="#FFB951" stroke-width="3" stroke-linecap="round" stroke-linejoin="round"/>
</svg>
