<svg width="29" height="34" viewBox="0 0 29 34" fill="none" xmlns="http://www.w3.org/2000/svg">
<path d="M20.9444 0L23.8444 2.88389L17.3839 9.32833L19.6717 11.6161L26.1161 5.17167L29 8.05556V0H20.9444ZM11.2778 11.2778C5.05889 11.2778 0 16.3206 0 22.5556C0 25.5466 1.18819 28.4152 3.30318 30.5301C5.41818 32.6451 8.28673 33.8333 11.2778 33.8333C17.4967 33.8333 22.5556 28.7906 22.5556 22.5556C22.5556 19.5645 21.3674 16.696 19.2524 14.581C17.1374 12.466 14.2688 11.2778 11.2778 11.2778ZM11.2778 14.7417C15.5794 14.7417 19.0917 18.2378 19.0917 22.5556C19.0917 23.5817 18.8896 24.5978 18.4969 25.5458C18.1042 26.4938 17.5286 27.3552 16.803 28.0808C16.0774 28.8064 15.216 29.382 14.268 29.7746C13.32 30.1673 12.3039 30.3694 11.2778 30.3694C6.96 30.3694 3.46389 26.8733 3.46389 22.5556C3.46389 20.4832 4.28714 18.4957 5.75252 17.0303C7.21791 15.5649 9.20541 14.7417 11.2778 14.7417ZM9.66667 17.7222V23.6672L14.8061 26.6317L16.0144 24.5372L12.0833 22.2656V17.7222" fill="#FFB951"/>
</svg>
