<svg width="30" height="35" viewBox="0 0 30 35" fill="none" xmlns="http://www.w3.org/2000/svg">
<path d="M2.28089 0L0 2.28089L6.4411 8.70593L3.54984 11.5811H11.5811V3.54984L8.70593 6.4411L2.28089 0ZM18.0062 11.5811C11.806 11.5811 6.76236 16.6087 6.76236 22.825C6.76236 25.807 7.94697 28.6669 10.0556 30.7755C12.1642 32.8842 15.0241 34.0688 18.0062 34.0688C24.2063 34.0688 29.25 29.0412 29.25 22.825C29.25 19.8429 28.0654 16.983 25.9568 14.8744C23.8481 12.7658 20.9882 11.5811 18.0062 11.5811ZM18.0062 15.0346C22.2949 15.0346 25.7965 18.5202 25.7965 22.825C25.7965 23.848 25.595 24.861 25.2035 25.8062C24.812 26.7514 24.2382 27.6102 23.5148 28.3336C22.7914 29.057 21.9326 29.6308 20.9874 30.0223C20.0423 30.4138 19.0292 30.6153 18.0062 30.6153C13.7014 30.6153 10.2158 27.1297 10.2158 22.825C10.2158 20.7588 11.0366 18.7773 12.4976 17.3163C13.9585 15.8554 15.94 15.0346 18.0062 15.0346ZM16.3999 18.0062V23.9333L21.5239 26.8888L22.7286 24.8007L18.8093 22.5358V18.0062" fill="#FFB951"/>
</svg>
