<svg width="17" height="16" viewBox="0 0 17 16" fill="none" xmlns="http://www.w3.org/2000/svg">
<path d="M16.4 3.3401L13.66 0.600102C13.3024 0.264198 12.8338 0.0714609 12.3433 0.0585541C11.8529 0.0456473 11.3748 0.213471 11 0.530102L2.00001 9.5301C1.67677 9.85607 1.47551 10.2833 1.43001 10.7401L1.00001 14.9101C0.986536 15.0566 1.00554 15.2042 1.05567 15.3425C1.10579 15.4808 1.18581 15.6063 1.29001 15.7101C1.38345 15.8028 1.49426 15.8761 1.6161 15.9259C1.73794 15.9756 1.8684 16.0009 2.00001 16.0001H2.09001L6.26001 15.6201C6.7168 15.5746 7.14404 15.3733 7.47001 15.0501L16.47 6.0501C16.8193 5.68107 17.0081 5.18861 16.995 4.68064C16.9819 4.17266 16.7679 3.69061 16.4 3.3401ZM6.08001 13.6201L3.08001 13.9001L3.35001 10.9001L9.00001 5.3201L11.7 8.0201L6.08001 13.6201ZM13 6.6801L10.32 4.0001L12.27 2.0001L15 4.7301L13 6.6801Z" fill="#FFB951"/>
</svg>
