<svg width="26" height="22" viewBox="0 0 26 22" fill="none" xmlns="http://www.w3.org/2000/svg">
<path d="M26 2.875C25.025 3.3625 24.05 3.525 22.9125 3.6875C24.05 3.0375 24.8625 2.0625 25.1875 0.7625C24.2125 1.4125 23.075 1.7375 21.775 2.0625C20.8 1.0875 19.3375 0.4375 17.875 0.4375C14.4625 0.4375 11.8625 3.6875 12.675 6.9375C8.2875 6.775 4.3875 4.6625 1.625 1.4125C0.1625 3.85 0.975 6.9375 3.25 8.5625C2.4375 8.5625 1.625 8.2375 0.8125 7.9125C0.8125 10.35 2.6 12.625 5.0375 13.275C4.225 13.4375 3.4125 13.6 2.6 13.4375C3.25 15.55 5.2 17.175 7.6375 17.175C5.6875 18.6375 2.7625 19.45 0 19.125C2.4375 20.5875 5.2 21.5625 8.125 21.5625C18.0375 21.5625 23.5625 13.275 23.2375 5.6375C24.375 4.9875 25.35 4.0125 26 2.875Z" fill="white"/>
</svg>
